<svg width="45" height="82" viewBox="0 0 45 82" fill="currentColor" xmlns="http://www.w3.org/2000/svg" variant="logo.nav" class="sc-AxjAm bGzVLJ sc-oUrtH bEgegu"><path d="M42.9873 76.5062C42.5052 75.2125 43.0528 74.138 42.3244 72.0771C42.3244 71.7555 42.4981 72.4863 42.5477 72.3475C42.3031 71.7027 42.1631 71.0212 42.1365 70.3304L42.195 70.4692C41.7412 67.7212 41.7182 66.6614 41.3726 63.665L41.2077 63.7746C41.1741 63.4344 41.1741 63.0917 41.2077 62.7513C40.7965 61.8158 41.4736 64.5858 41.0411 63.7016C41.307 63.0657 40.3197 59.0751 40.7167 58.7317C40.5643 57.7158 40.5218 58.9071 40.3711 57.8912L40.4562 57.6938L40.2541 57.3504C40.1832 56.6999 40.2914 56.4441 40.3995 56.4733C40.4314 56.6947 40.4739 56.9143 40.5289 57.1311C40.4385 56.211 40.3002 55.2963 40.1177 54.3904L40.1832 55.3332C39.6426 52.5047 39.3094 49.1867 38.6253 46.4095L38.5526 46.5775C38.0563 44.4654 38.4161 44.977 37.9837 42.7112V42.799C37.7993 42.2449 37.6681 41.6748 37.5866 41.0961C37.7958 41.6954 37.6593 40.1021 37.911 40.8767C37.3633 38.6038 37.5795 39.7367 36.9662 38.1726L37.0885 37.8803C36.8103 37.3438 36.6259 36.763 36.5409 36.1628C36.8369 37.1129 36.7004 35.5124 37.0531 36.5794C37.0531 34.3065 36.1297 33.02 36.5267 32.048C35.8709 30.8787 36.5692 34.0287 36.3672 33.4075C36.2892 33.8753 35.8709 32.45 35.8053 31.7265C35.7397 31.0029 36.2307 30.5571 35.9276 28.6642C35.9276 28.8542 35.9932 28.8688 36.0215 29.0588C36.0215 28.3645 35.6404 27.6483 35.7043 26.8078C35.3374 26.289 35.5536 25.6824 35.1495 25.4996L35.5022 27.2391C35.2505 26.245 34.6656 25.2876 34.6302 23.7017C34.7844 24.0058 34.9102 24.324 35.0059 24.6517C35.0485 24.1913 34.7879 23.7382 34.8322 23.2558C35.2364 23.424 35.2434 25.368 35.6972 26.4496C35.7769 25.96 35.114 24.4325 35.6032 24.9879C34.9616 24.1841 35.3799 23.1242 34.7808 21.8233L35.0272 21.9183C34.896 21.5955 34.7968 21.2601 34.7312 20.9171L35.1353 21.6041C34.717 20.559 35.0414 19.6088 34.7525 18.6075C35.0839 20.6979 34.5504 19.068 34.515 19.945C33.7936 17.4602 34.8039 18.3811 34.3625 15.8231C34.4139 16.2835 34.3625 16.9558 34.219 16.4443C34.1605 15.91 34.1605 15.3707 34.219 14.8364C33.8733 12.9215 34.024 15.136 33.7581 14.3248C33.9371 13.667 33.4976 13.3893 33.2743 12.5634H33.5117C33.3168 10.3708 32.9357 12.0153 32.7904 10.0566L33.2459 10.8532L32.9995 9.84467L33.3026 10.0346C33.0137 9.22014 32.8524 8.36416 32.8276 7.49862C32.7053 7.76904 32.388 7.3963 32.2285 6.43888C32.2639 5.7738 32.5103 6.78238 32.2285 5.4303C32.3721 5.59453 32.4749 5.79072 32.528 6.00286C32.5812 6.21497 32.5865 6.43702 32.5387 6.65083C32.6255 6.70199 32.7336 6.93585 32.8134 6.99433C32.8081 6.22491 32.7248 5.45811 32.5599 4.70675C32.5759 4.88667 32.5759 5.06767 32.5599 5.24758L31.9254 3.31812C31.9626 2.99654 32.0707 3.23042 32.1789 3.46429C32.092 3.06963 31.9396 2.80651 31.8315 2.22183C32.0406 2.34608 32.2285 2.2803 32.4518 3.10617L32.0477 1.64446L31.7162 0.423926L30.7645 0.533555L30.3834 0.584714C30.2522 0.497012 29.4227 0.350841 29.662 0.277757C28.6304 0.168128 27.1309 0.650492 25.7608 0.504321C25.5978 0.566306 25.4276 0.600876 25.2557 0.60664C23.9441 0.452406 22.6218 0.452406 21.3102 0.60664L20.4453 0.255831C19.2559 0.336226 21.6204 0.694338 19.6299 0.825905C18.2244 0.935532 19.1106 0.526246 18.6143 0.431236C17.5792 0.765115 16.4838 0.850188 15.4115 0.679717C15.7979 0.65817 16.186 0.65817 16.5724 0.679717L15.5852 0.482396C16.7745 0.175436 17.6324 0.277757 16.7089 0.0146484C16.6008 0.533555 14.2789 0.277753 13.2402 0.467775L11.7992 0.73088V1.6737C11.7992 1.96604 11.856 2.16337 11.9853 2.21451L11.7478 2.84305C11.7851 2.66034 11.7478 2.6238 11.7851 2.44109C11.2728 3.65432 12.1094 3.44967 11.7851 5.06487C11.6468 5.62763 11.4891 6.00767 11.4749 5.60571L11.4377 6.89933C11.3668 7.25743 11.2657 7.15512 11.3366 6.78968L11.085 8.72646C11.1505 9.14278 11.1931 9.56243 11.2143 9.98354C11.0495 10.4586 11.2143 9.72773 11.085 9.83735V10.9336C10.8474 11.3356 10.8244 10.4293 10.9626 9.69118C10.1615 10.5828 10.9627 10.6047 10.2413 12.695L10.3139 11.6718C9.84418 12.2638 9.85837 13.075 9.44716 14.1713C9.60668 13.9228 10.3848 11.9787 10.3636 13.17C10.2218 13.6206 10.1686 14.0946 10.204 14.566C9.97357 14.566 9.93104 15.1507 9.82292 15.9181L9.52692 15.8157C9.51097 16.2597 9.57476 16.7031 9.71479 17.124C9.534 18.0375 9.26814 18.1911 9.03595 18.3737C8.7559 19.8354 9.57833 17.4163 9.36032 19.1704C9.09268 20.3442 8.96683 21.5468 8.98633 22.7516C8.74882 23.592 8.82681 22.5688 8.69033 22.8612L8.81263 23.6651C8.81263 23.8479 8.71159 23.7748 8.68323 23.7382C8.68323 24.3961 8.97923 23.8405 8.89947 24.8637C9.19547 25.1853 8.08413 26.8516 8.26492 28.1599C8.13553 28.4523 8.10718 27.9771 7.96893 28.0503C7.92284 29.0253 7.94766 30.0024 8.0416 30.9737L7.65166 32.1358C8.02033 31.2953 8.11427 32.4574 8.17808 33.4805L8.08414 33.6413C7.96184 33.2247 7.81828 32.83 7.62331 32.9104C7.64458 33.0876 7.64458 33.2668 7.62331 33.4441C7.58786 33.3344 7.55772 33.2613 7.51518 33.2979C7.47087 33.3344 7.5152 33.5245 7.55773 33.7949L7.16246 34.0945L7.28476 34.2041L6.74417 36.2212C6.98877 37.9564 7.0508 39.7129 6.93027 41.4616C6.77252 40.8403 6.54211 41.2715 6.2532 41.1911C6.66441 40.6063 6.40387 39.364 6.65733 38.1654C6.52617 38.7866 6.40387 38.6258 6.3826 38.4578L6.32586 40.6503C6.09367 40.5625 6.07241 41.0815 5.88453 41.6296C6.43399 41.2788 5.95012 43.2887 5.95721 44.1875C5.78351 44.1875 5.65411 43.9757 5.86326 42.9159C5.31558 44.0341 6.18763 44.5312 5.69843 45.642C5.73388 45.3788 5.78351 45.24 5.69843 45.1232C5.74806 45.759 5.40242 47.2279 5.31557 46.8553C5.33517 46.714 4.12084 51.5329 4.8831 52.1978C4.68281 52.0942 4.50557 51.95 4.36378 51.7738L4.96994 54.0616L4.81042 55.0334C4.42048 55.0992 3.94548 55.2236 3.96675 54.2004C3.79128 54.783 3.70088 55.3889 3.70088 55.9983C3.79305 55.7279 4.31238 55.377 4.28402 55.7717C3.94194 56.3929 3.6548 57.0434 3.42615 57.7158C3.56972 57.3066 4.03942 57.862 3.91712 58.527C3.85154 58.41 3.36765 58.527 3.35347 58.242L3.6282 59.9887C3.59275 59.5649 3.18154 59.8425 2.97239 60.1933C2.92099 60.8259 2.83592 61.4555 2.71894 62.0791L2.95822 61.392C2.57537 63.2557 3.41906 63.3653 3.0947 65.2217C3.02203 64.9805 2.50269 64.5566 2.27936 65.4921C2.52396 66.0131 2.73313 66.5503 2.90683 67.1L2.58245 69.1829C2.36443 68.2739 2.19074 67.3543 2.06313 66.4275C1.83271 67.1072 1.85398 66.5957 1.70333 67.648C1.49418 67.9916 1.56507 67.0342 1.60938 66.7272L1.1255 69.1609C1.46404 69.1025 1.1255 71.0832 1.43568 71.032L1.52252 68.3205C1.86106 68.262 2.18543 70.0016 1.86107 71.7263C1.65901 72.1501 1.34173 71.3024 1.22652 71.3243C1.26552 71.9376 1.2159 72.5534 1.07588 73.1514L1.01739 72.3841C0.742658 73.3342 1.19817 74.0284 0.707206 75.1393C0.620356 75.5341 0.101023 76.2722 0.281813 76.3672C0.437788 76.2017 0.630992 76.0776 0.843686 76.0063C1.05815 75.9347 1.2868 75.9183 1.50835 75.9579L1.29212 77.3246L1.17691 77.2442L1.13968 77.5074H1.26199H1.0103L1.21944 77.7559L1.04574 78.8813C0.751513 78.9763 0.606186 77.7193 0.324367 78.1505C0.411217 78.1943 0.462604 78.5745 0.476783 78.7279C0.382843 78.9909 0.310175 78.8301 0.239277 78.9179L0 79.2249L1.02447 79.8534C1.19463 79.8945 1.37365 79.8945 1.54381 79.8534C1.69624 79.5172 3.40488 79.8534 1.97628 79.5684C2.64273 79.5534 3.30917 79.5729 3.97384 79.6268C3.75051 79.4808 4.24148 79.2103 4.85475 79.0129H6.05823C7.88208 79.0129 8.87111 79.1957 10.5727 79.1957C10.7322 79.276 11.5529 79.3784 11.2072 79.5172C11.4696 79.4314 11.7408 79.3749 12.0155 79.3492H12.3469V79.0567C12.3469 79.0055 12.3469 78.9399 12.3469 78.8741C12.5773 78.3405 12.5206 78.7279 12.4905 79.0859L12.455 79.51L12.6358 79.4588L12.5915 79.1005C12.5348 78.6767 12.5915 77.7559 12.5915 77.1566C12.3398 77.3028 12.2884 78.2675 12.2884 79.0495V79.2907L11.957 79.3418L11.3738 79.4296C11.3738 79.2833 11.5529 79.1445 11.8701 79.0055H11.957L12.751 73.6704C13.0541 72.4571 13.3927 69.2853 13.8464 67.5238C13.8411 67.2785 13.8145 67.0338 13.7667 66.793L14.0272 65.0316H19.2914C19.279 65.0471 19.2719 65.0664 19.2719 65.0865C19.2719 65.1065 19.279 65.1258 19.2914 65.1413L20.1936 65.0316H20.2928C20.2928 65.0828 19.9755 65.1633 20.2361 65.2071C20.2361 65.1413 20.4027 65.0755 20.603 65.0316H23.4885C23.5293 65.0371 23.5701 65.0371 23.6108 65.0316C23.6924 65.0244 23.7739 65.0244 23.8554 65.0316H28.7173L30.7857 79.0349H42.8579L42.5193 76.8422C42.7214 76.6012 42.8153 76.3308 42.9873 76.5062ZM33.3753 39.3274C32.4075 40.2321 31.3866 41.0765 30.3178 41.8562C30.4047 41.805 30.4684 41.8196 30.5553 41.783L30.238 42.0754L29.9562 42.3166C29.802 42.4565 29.6195 42.5634 29.4227 42.6308C29.1639 43.0549 29.1568 42.799 28.7882 43.3033C28.7882 43.3471 28.8538 43.3033 28.8892 43.2595C28.7066 43.4605 28.5099 43.6509 28.3061 43.8295C27.8186 44.0336 27.3667 44.3121 26.9643 44.6554C27.0139 44.8892 27.3312 44.4069 27.4482 44.5312C27.3241 44.5896 27.1309 44.6992 27.0937 44.7942C27.1735 44.838 27.0937 44.8528 27.216 44.86C27.1735 44.933 27.216 44.86 27.1079 44.86C27.0618 44.8499 27.0122 44.8499 26.9643 44.86C26.9129 44.86 26.9058 44.86 26.9643 44.8016C26.943 44.7906 26.92 44.785 26.8952 44.785C26.8722 44.785 26.8491 44.7906 26.8278 44.8016C26.8828 44.9036 26.9253 45.0114 26.9572 45.1232C26.9218 45.0428 26.8845 44.9842 26.8562 44.977C26.8278 44.9696 26.7764 44.9258 26.741 44.977C26.7995 45.1156 26.8278 45.2649 26.8278 45.4154C26.8278 45.5762 26.8278 45.7224 26.8278 45.8978C27.0866 46.2999 26.8704 45.5178 27.037 45.547C27.2018 45.5762 27.2887 45.7296 27.2745 45.547C27.4003 45.8928 27.4925 46.2501 27.5492 46.6141H27.5847C27.6857 47.1144 27.8328 47.6038 28.0242 48.0758L27.8949 47.8712C27.9463 48.0318 27.9764 48.1991 27.9817 48.3682C28.0384 48.3682 28.2192 48.6238 28.2263 48.4704C28.104 48.77 28.5294 49.6251 28.4284 49.9321C28.5294 50.0417 28.5719 49.9321 28.6021 49.8445C28.4638 49.5449 28.3841 49.4571 28.4071 49.2671C28.501 49.5229 28.6233 49.6909 28.6588 49.6325C28.6588 49.9395 28.8112 50.5607 28.7315 50.7434C28.8679 50.9042 28.9761 51.0722 29.0558 50.9626C29.2862 51.7738 28.579 50.7068 28.9193 51.5912C29.1781 51.9492 28.9193 51.138 29.1568 51.6788V51.5692C29.5822 51.8688 29.07 51.9346 29.2579 52.3805C29.4227 52.3805 29.2579 52.0224 29.467 52.2928C29.5893 52.7241 29.467 53.0237 29.646 53.3963V53.3013C29.7559 53.5717 29.9562 54.0762 30.0572 54.3466C30.0945 54.3466 30.0572 54.31 30.0572 54.2588C30.3036 54.7266 30.0573 54.4926 30.3178 54.858V54.997C30.1282 54.7556 30.0041 54.4686 29.9562 54.1638C29.9562 54.3758 29.7843 54.1126 29.646 54.0176L30.0643 55.0992L29.3447 54.3684L29.4458 54.4854H29.4014L29.2579 54.288L27.8949 52.9433C27.8966 53.0167 27.9143 53.0886 27.9462 53.1542C27.9799 53.22 28.026 53.2777 28.0827 53.3233C27.9232 53.2137 27.9019 53.3233 27.9445 53.4109C27.7867 53.2721 27.4482 52.9945 27.5563 52.9871L27.6272 53.0309C27.6272 52.9799 27.5776 52.8849 27.5563 52.8263C27.3472 52.6291 27.3968 52.8263 27.3312 52.7899C26.9643 52.4755 27.4411 52.6145 27.1221 52.3147H27.0512C26.9448 52.1706 26.8473 52.0192 26.7623 51.8616L26.2146 51.328C26.0923 51.5108 26.7764 51.8104 26.8491 52.0588C26.64 51.942 26.8491 52.249 26.8491 52.3659L26.4166 51.7738C26.3511 51.7738 26.0994 51.7228 26.0781 51.5546H26.1206C25.9327 51.3354 26.0692 51.3062 25.8689 51.16C25.8246 51.16 25.8689 51.2404 25.8689 51.2624C25.6881 51.1234 25.775 51.087 25.6811 50.9626C25.5871 50.8384 25.6811 51.1234 25.5286 51.0138C25.4134 50.7507 25.2043 50.7434 25.0465 50.5825C25.2043 50.5387 24.7151 49.9759 24.8728 49.9759L24.6424 49.7567C24.6424 49.8663 24.692 49.9833 24.591 49.9833L24.9083 50.2829C24.7222 50.3779 24.3393 49.5521 23.9706 49.5083C23.8253 49.3588 23.6569 49.233 23.4744 49.1355L23.6463 49.0624C23.4602 48.9308 23.3361 48.9528 23.3077 48.9674C23.2262 48.8744 23.1376 48.7888 23.0419 48.7116C23.0419 48.7392 23.0472 48.7662 23.0596 48.7915C23.0702 48.8165 23.0862 48.8391 23.1057 48.8578C22.8965 48.7992 22.9479 48.792 22.9409 48.7116C22.9338 48.6312 22.8611 48.58 22.7955 48.5216L22.8327 48.6458C22.8327 48.5946 22.7601 48.5288 22.7672 48.4924C22.7388 48.4639 22.7157 48.432 22.6945 48.3974C22.7193 48.363 22.7547 48.3392 22.7937 48.3311C22.8345 48.3229 22.877 48.3309 22.9107 48.3534C22.8026 48.2804 22.7087 48.2074 22.6307 48.1416C22.4517 48.3036 22.3081 48.4998 22.2053 48.7188C22.2478 48.7188 22.363 48.7188 22.3418 48.7628C22.3205 48.8066 21.982 49.004 21.9731 48.9088L21.8739 48.9893C21.8756 49.0289 21.8685 49.0686 21.8543 49.1053C21.8384 49.1421 21.8153 49.1749 21.787 49.2013C21.7728 49.2497 21.7445 49.293 21.7072 49.3255C21.5566 49.2744 21.2818 49.6251 21.1737 49.6399C21.2517 49.5515 21.3368 49.4686 21.4254 49.3913C21.2304 49.4425 21.0372 49.4791 20.9788 49.6325C21.296 49.4645 20.8121 49.9907 21.2163 49.6691C21.0727 50.0491 20.9929 49.6691 20.7554 50.0053L20.6189 50.2317C20.72 50.2829 20.9504 49.9979 20.9362 50.0637L20.798 50.1733C20.9787 50.1075 21.4183 49.6325 21.787 49.4425L21.2375 50.0271C20.8281 50.3267 20.4169 50.7141 20.0057 51.0796C19.5236 51.5267 19.0096 51.937 18.469 52.3074H18.5133C18.5133 52.3074 18.5133 52.3074 18.5133 52.2416L18.469 52.3147L18.3112 52.3586C18.095 52.6949 17.698 53.0895 17.2938 53.5645C17.4374 53.421 17.5508 53.2494 17.6253 53.0603C17.6253 52.8921 17.6696 52.8263 17.3665 53.1553C17.2867 53.3307 17.4746 53.1553 17.1999 53.4841C17.3523 53.2941 17.2938 53.2795 17.1999 53.3671C16.9819 53.5973 16.7798 53.8414 16.5937 54.098C16.6806 54.0359 16.7568 53.9593 16.817 53.8715C16.8755 53.8715 16.3987 54.3538 16.5654 54.2808L16.2623 54.5292C15.9663 54.8874 16.2623 54.6754 16.1116 54.858C15.7571 55.1432 15.649 55.1212 15.5267 55.1358C15.6419 54.8508 15.75 54.5878 15.8511 54.3612C15.7642 54.5 15.4399 54.9896 15.5338 54.8362C15.6136 54.4342 16.1984 53.3013 16.3633 52.8045C16.28 52.9781 16.2055 53.156 16.14 53.3379C16.3633 52.5413 16.5512 51.8324 16.7461 51.1088C16.8472 50.7361 16.9482 50.3779 17.0492 49.9541C17.1503 49.5301 17.1644 49.3987 17.2141 49.099L17.4605 48.8724V48.5654C17.7086 47.5373 18.0365 46.5304 18.4406 45.5542C18.5487 45.2254 18.3892 45.3204 18.3892 45.145C18.3892 44.9696 18.4619 44.9258 18.4902 44.882L18.6054 44.7504C18.6054 44.6626 18.6054 44.6262 18.3963 44.4142C18.4406 44.5166 18.4761 44.7358 18.2385 44.5458C18.2403 44.4899 18.2261 44.4345 18.196 44.3875C18.1676 44.3404 18.1233 44.3036 18.0719 44.2826L18.1162 44.3849C17.9355 44.3265 17.8486 44.1583 17.5455 43.9463C17.0811 43.5436 16.6841 43.0671 16.3704 42.5358C15.9166 42.1778 16.2977 42.7186 16.1896 42.6746C16.537 42.8867 16.3846 42.8794 16.4147 42.9817C16.2835 42.8063 16.1045 42.6162 15.945 42.6382C15.7518 42.4837 15.5817 42.3015 15.4399 42.0974C15.5267 42.2288 15.6632 42.2582 15.5923 42.0974C15.5196 41.9366 15.3246 41.8928 15.174 41.783C15.0216 41.6734 14.777 41.498 14.7628 41.5858L11.6468 39.057L15.4044 38.8232C15.8652 38.8742 15.0942 38.867 15.3459 38.9108C15.9663 38.9766 15.8652 38.8232 16.1612 38.9108L16.0389 38.8378C16.4891 38.8336 16.9394 38.8778 17.3807 38.9692C17.308 38.8816 17.7263 38.8742 17.3807 38.8378C17.5898 38.8378 17.8132 38.3992 17.978 38.4796L17.7688 38.8888C17.7688 38.9254 18.0719 38.8888 18.0507 38.8888C18.212 38.7952 18.3874 38.7285 18.57 38.6916C18.6285 38.582 18.3112 38.6258 18.1375 38.6404C18.1021 38.4724 18.7136 38.4942 18.4548 38.3628C18.8305 38.3628 18.4052 38.4504 18.6356 38.4942L18.9528 38.443L18.7065 38.5088C18.9812 38.5088 19.0822 38.6624 19.4279 38.5528C19.5502 38.587 19.6689 38.6335 19.7824 38.6916C19.7824 38.56 19.8834 38.6916 19.9472 38.6258L19.8603 38.5454C19.8727 38.5508 19.8869 38.5537 19.9011 38.5537C19.9135 38.5537 19.9277 38.5508 19.9401 38.5454C19.9419 38.5187 19.9419 38.4918 19.9401 38.465C19.8905 38.465 19.8905 38.465 19.8976 38.465C19.9047 38.465 19.8976 38.465 19.8533 38.465C19.9117 38.5308 19.9756 38.5308 19.9986 38.6112C20.1422 38.6112 20.2219 38.772 20.3797 38.0484C20.33 37.7267 20.2006 38.3408 20.1067 38.1874C20.2148 37.5003 20.6189 35.2638 20.6969 34.4087C20.7696 33.3198 21.0869 33.6779 21.2163 32.5816C21.094 32.874 21.2163 31.7776 21.1525 31.5365L21.0213 31.9238C21.0798 31.6095 21.0869 31.2733 21.0213 31.3391L21.1383 28.7958C21.1542 28.5647 21.1542 28.3326 21.1383 28.1015C21.2127 27.9598 21.2765 27.8133 21.3315 27.6629V27.3195C21.5123 26.3474 21.2535 26.0112 21.3315 25.1853C21.4839 24.6299 21.3971 25.5362 21.5708 23.7236C21.5052 23.7965 21.4485 23.8776 21.4041 23.9649C21.6417 21.8379 21.5123 23.7382 21.7072 21.9695C21.6487 22.642 21.8224 22.145 21.7072 23.2412C21.8668 22.3452 21.9678 21.4393 22.0103 20.5298C22.0688 20.971 22.1043 21.415 22.1184 21.8599L22.2337 22.1011C22.2762 20.9757 22.2833 20.7345 22.3489 20.1644C22.3489 19.9816 22.3489 19.8428 22.3489 19.7258V20.0182C22.4251 19.7671 22.4836 19.5105 22.5225 19.2508C22.5225 19.0754 22.5225 18.9292 22.5225 18.7903C22.5722 19.2825 22.6537 19.7709 22.7672 20.252V20.9317V20.4494C22.7087 20.0036 22.6449 19.9158 22.6803 20.8441C22.7743 22.3058 22.8186 21.0413 22.8611 20.7271C22.8434 20.0442 22.7831 19.3631 22.6803 18.6879C22.7317 17.8549 22.8097 19.7186 22.9692 20.274C22.9692 18.6515 22.8026 18.8123 22.7813 17.3505C22.9178 18.2933 22.9267 19.3824 23.0632 20.274C23.0632 19.6746 22.9409 18.4395 22.9621 17.8403L23.0703 18.3665C22.8327 16.1739 23.1571 17.4383 22.9621 15.3918C23.0773 15.8304 23.0703 17.4602 23.228 18.0083C23.1713 18.0595 23.0419 18.0083 23.1429 19.47L23.2865 20.3616C23.3733 20.4786 23.1996 18.1107 23.2865 18.5637L23.4159 20.2228C23.4159 20.4128 23.3148 19.9158 23.329 20.6395C23.4371 21.1363 23.3875 22.7224 23.4301 23.709C23.4425 24.0642 23.5027 24.4159 23.6108 24.7541C23.6906 26.647 23.9139 28.5619 23.8998 29.6142C23.8998 28.942 24.0504 29.5632 24.1585 29.9066C24.0947 29.1758 24.2312 29.0954 24.3251 29.0954C24.3251 29.5412 24.2525 29.9066 24.1798 29.7094C24.3251 30.4403 24.1798 30.2649 24.311 30.8641C24.4049 31.2515 24.4191 30.5791 24.49 30.6959C24.5839 31.4925 24.3464 31.0029 24.49 31.8508C24.49 31.7923 24.49 31.7119 24.5343 31.763C24.6034 32.1324 24.6034 32.5118 24.5343 32.8812C24.7718 33.2832 24.6708 34.2917 24.8374 34.1017C24.9154 35.2492 24.7222 33.9849 24.6849 34.2407C24.6956 34.7675 24.7612 35.2919 24.8799 35.8046C24.8746 35.5333 24.8516 35.2623 24.8161 34.9934L24.9597 35.1688C25.2043 36.5283 24.786 37.9241 25.0465 38.538C25.0465 38.1946 25.1103 38.4066 25.1546 38.2238C25.1546 38.275 25.1901 38.4212 25.2043 38.5234C25.2184 38.6258 25.2043 38.5966 25.1405 38.5234C25.16 38.5876 25.1919 38.6472 25.2344 38.6988V38.7792C25.2734 38.8187 25.3053 38.8659 25.3266 38.9182C25.5268 38.8928 25.7254 38.8513 25.9186 38.7938C26.64 38.9328 27.2958 38.7938 28.0384 38.9546H27.9888C28.5719 38.9546 27.7141 39.1082 28.3202 39.1374C28.2476 38.9766 28.6942 39.057 28.8892 38.9838C29.086 38.9705 29.2845 38.9705 29.4812 38.9838L30.2735 39.0642C30.7964 39.0972 31.3174 39.0947 31.8385 39.057C31.8829 39.057 31.8386 38.9912 31.6454 38.9692C32.4235 38.9692 33.0296 39.0278 33.6571 39.0716L33.2743 39.3932L33.3753 39.3274Z" fill="#1C2A34"></path><path d="M44.9873 78.5062C44.5052 77.2125 45.0528 76.138 44.3244 74.0771C44.3244 73.7555 44.4981 74.4863 44.5477 74.3475C44.3031 73.7027 44.1631 73.0212 44.1365 72.3304L44.195 72.4692C43.7412 69.7212 43.7182 68.6614 43.3726 65.665L43.2077 65.7746C43.1741 65.4344 43.1741 65.0917 43.2077 64.7513C42.7965 63.8158 43.4736 66.5858 43.0411 65.7016C43.307 65.0657 42.3197 61.0751 42.7167 60.7317C42.5643 59.7158 42.5218 60.9071 42.3711 59.8912L42.4562 59.6938L42.2541 59.3504C42.1832 58.6999 42.2914 58.4441 42.3995 58.4733C42.4314 58.6947 42.4739 58.9143 42.5289 59.1311C42.4385 58.211 42.3002 57.2963 42.1177 56.3904L42.1832 57.3332C41.6426 54.5047 41.3094 51.1867 40.6253 48.4095L40.5526 48.5775C40.0563 46.4654 40.4161 46.977 39.9837 44.7112V44.799C39.7993 44.2449 39.6681 43.6748 39.5866 43.0961C39.7958 43.6954 39.6593 42.1021 39.911 42.8767C39.3633 40.6038 39.5795 41.7367 38.9662 40.1726L39.0885 39.8803C38.8103 39.3438 38.6259 38.763 38.5409 38.1628C38.8369 39.1129 38.7004 37.5124 39.0531 38.5794C39.0531 36.3065 38.1297 35.02 38.5267 34.048C37.8709 32.8787 38.5692 36.0287 38.3672 35.4075C38.2892 35.8753 37.8709 34.45 37.8053 33.7265C37.7397 33.0029 38.2307 32.5571 37.9276 30.6642C37.9276 30.8542 37.9932 30.8688 38.0215 31.0588C38.0215 30.3645 37.6404 29.6483 37.7043 28.8078C37.3374 28.289 37.5536 27.6824 37.1495 27.4996L37.5022 29.2391C37.2505 28.245 36.6656 27.2876 36.6302 25.7017C36.7844 26.0058 36.9102 26.324 37.0059 26.6517C37.0485 26.1913 36.7879 25.7382 36.8322 25.2558C37.2364 25.424 37.2434 27.368 37.6972 28.4496C37.7769 27.96 37.114 26.4325 37.6032 26.9879C36.9616 26.1841 37.3799 25.1242 36.7808 23.8233L37.0272 23.9183C36.896 23.5955 36.7968 23.2601 36.7312 22.9171L37.1353 23.6041C36.717 22.559 37.0414 21.6088 36.7525 20.6075C37.0839 22.6979 36.5504 21.068 36.515 21.945C35.7936 19.4602 36.8039 20.3811 36.3625 17.8231C36.4139 18.2835 36.3625 18.9558 36.219 18.4443C36.1605 17.91 36.1605 17.3707 36.219 16.8364C35.8733 14.9215 36.024 17.136 35.7581 16.3248C35.9371 15.667 35.4976 15.3893 35.2743 14.5634H35.5117C35.3168 12.3708 34.9357 14.0153 34.7904 12.0566L35.2459 12.8532L34.9995 11.8447L35.3026 12.0346C35.0137 11.2201 34.8524 10.3642 34.8276 9.49862C34.7053 9.76904 34.388 9.3963 34.2285 8.43888C34.2639 7.7738 34.5103 8.78238 34.2285 7.4303C34.3721 7.59453 34.4749 7.79072 34.528 8.00286C34.5812 8.21497 34.5865 8.43702 34.5387 8.65083C34.6255 8.70199 34.7336 8.93585 34.8134 8.99433C34.8081 8.22491 34.7248 7.45811 34.5599 6.70675C34.5759 6.88667 34.5759 7.06767 34.5599 7.24758L33.9254 5.31812C33.9626 4.99654 34.0707 5.23042 34.1789 5.46429C34.092 5.06963 33.9396 4.80651 33.8315 4.22183C34.0406 4.34608 34.2285 4.2803 34.4518 5.10617L34.0477 3.64446L33.7162 2.42393L32.7645 2.53356L32.3834 2.58471C32.2522 2.49701 31.4227 2.35084 31.662 2.27776C30.6304 2.16813 29.1309 2.65049 27.7608 2.50432C27.5978 2.56631 27.4276 2.60088 27.2557 2.60664C25.9441 2.45241 24.6218 2.45241 23.3102 2.60664L22.4453 2.25583C21.2559 2.33623 23.6204 2.69434 21.6299 2.82591C20.2244 2.93553 21.1106 2.52625 20.6143 2.43124C19.5792 2.76512 18.4838 2.85019 17.4115 2.67972C17.7979 2.65817 18.186 2.65817 18.5724 2.67972L17.5852 2.4824C18.7745 2.17544 19.6324 2.27776 18.7089 2.01465C18.6008 2.53356 16.2789 2.27775 15.2402 2.46778L13.7992 2.73088V3.6737C13.7992 3.96604 13.856 4.16337 13.9853 4.21451L13.7478 4.84305C13.7851 4.66034 13.7478 4.6238 13.7851 4.44109C13.2728 5.65432 14.1094 5.44967 13.7851 7.06487C13.6468 7.62763 13.4891 8.00767 13.4749 7.60571L13.4377 8.89933C13.3668 9.25743 13.2657 9.15512 13.3366 8.78968L13.085 10.7265C13.1505 11.1428 13.1931 11.5624 13.2143 11.9835C13.0495 12.4586 13.2143 11.7277 13.085 11.8373V12.9336C12.8474 13.3356 12.8244 12.4293 12.9626 11.6912C12.1615 12.5828 12.9627 12.6047 12.2413 14.695L12.3139 13.6718C11.8442 14.2638 11.8584 15.075 11.4472 16.1713C11.6067 15.9228 12.3848 13.9787 12.3636 15.17C12.2218 15.6206 12.1686 16.0946 12.204 16.566C11.9736 16.566 11.931 17.1507 11.8229 17.9181L11.5269 17.8157C11.511 18.2597 11.5748 18.7031 11.7148 19.124C11.534 20.0375 11.2681 20.1911 11.036 20.3737C10.7559 21.8354 11.5783 19.4163 11.3603 21.1704C11.0927 22.3442 10.9668 23.5468 10.9863 24.7516C10.7488 25.592 10.8268 24.5688 10.6903 24.8612L10.8126 25.6651C10.8126 25.8479 10.7116 25.7748 10.6832 25.7382C10.6832 26.3961 10.9792 25.8405 10.8995 26.8637C11.1955 27.1853 10.0841 28.8516 10.2649 30.1599C10.1355 30.4523 10.1072 29.9771 9.96893 30.0503C9.92284 31.0253 9.94766 32.0024 10.0416 32.9737L9.65166 34.1358C10.0203 33.2953 10.1143 34.4574 10.1781 35.4805L10.0841 35.6413C9.96184 35.2247 9.81828 34.83 9.62331 34.9104C9.64458 35.0876 9.64458 35.2668 9.62331 35.4441C9.58786 35.3344 9.55772 35.2613 9.51518 35.2979C9.47087 35.3344 9.5152 35.5245 9.55773 35.7949L9.16246 36.0945L9.28476 36.2041L8.74417 38.2212C8.98877 39.9564 9.0508 41.7129 8.93027 43.4616C8.77252 42.8403 8.54211 43.2715 8.2532 43.1911C8.66441 42.6063 8.40387 41.364 8.65733 40.1654C8.52617 40.7866 8.40387 40.6258 8.3826 40.4578L8.32586 42.6503C8.09367 42.5625 8.07241 43.0815 7.88453 43.6296C8.43399 43.2788 7.95012 45.2887 7.95721 46.1875C7.78351 46.1875 7.65411 45.9757 7.86326 44.9159C7.31558 46.0341 8.18763 46.5312 7.69843 47.642C7.73388 47.3788 7.78351 47.24 7.69843 47.1232C7.74806 47.759 7.40242 49.2279 7.31557 48.8553C7.33517 48.714 6.12084 53.5329 6.8831 54.1978C6.68281 54.0942 6.50557 53.95 6.36378 53.7738L6.96994 56.0616L6.81042 57.0334C6.42048 57.0992 5.94548 57.2236 5.96675 56.2004C5.79128 56.783 5.70088 57.3889 5.70088 57.9983C5.79305 57.7279 6.31238 57.377 6.28402 57.7717C5.94194 58.3929 5.6548 59.0434 5.42615 59.7158C5.56972 59.3066 6.03942 59.862 5.91712 60.527C5.85154 60.41 5.36765 60.527 5.35347 60.242L5.6282 61.9887C5.59275 61.5649 5.18154 61.8425 4.97239 62.1933C4.92099 62.8259 4.83592 63.4555 4.71894 64.0791L4.95822 63.392C4.57537 65.2557 5.41906 65.3653 5.0947 67.2217C5.02203 66.9805 4.50269 66.5566 4.27936 67.4921C4.52396 68.0131 4.73313 68.5503 4.90683 69.1L4.58245 71.1829C4.36443 70.2739 4.19074 69.3543 4.06313 68.4275C3.83271 69.1072 3.85398 68.5957 3.70333 69.648C3.49418 69.9916 3.56507 69.0342 3.60938 68.7272L3.1255 71.1609C3.46404 71.1025 3.1255 73.0832 3.43568 73.032L3.52252 70.3205C3.86106 70.262 4.18543 72.0016 3.86107 73.7263C3.65901 74.1501 3.34173 73.3024 3.22652 73.3243C3.26552 73.9376 3.2159 74.5534 3.07588 75.1514L3.01739 74.3841C2.74266 75.3342 3.19817 76.0284 2.70721 77.1393C2.62036 77.5341 2.10102 78.2722 2.28181 78.3672C2.43779 78.2017 2.63099 78.0776 2.84369 78.0063C3.05815 77.9347 3.2868 77.9183 3.50835 77.9579L3.29212 79.3246L3.17691 79.2442L3.13968 79.5074H3.26199H3.0103L3.21944 79.7559L3.04574 80.8813C2.75151 80.9763 2.60619 79.7193 2.32437 80.1505C2.41122 80.1943 2.4626 80.5745 2.47678 80.7279C2.38284 80.9909 2.31018 80.8301 2.23928 80.9179L2 81.2249L3.02447 81.8534C3.19463 81.8945 3.37365 81.8945 3.54381 81.8534C3.69624 81.5172 5.40488 81.8534 3.97628 81.5684C4.64273 81.5534 5.30917 81.5729 5.97384 81.6268C5.75051 81.4808 6.24148 81.2103 6.85475 81.0129H8.05823C9.88208 81.0129 10.8711 81.1957 12.5727 81.1957C12.7322 81.276 13.5529 81.3784 13.2072 81.5172C13.4696 81.4314 13.7408 81.3749 14.0155 81.3492H14.3469V81.0567C14.3469 81.0055 14.3469 80.9399 14.3469 80.8741C14.5773 80.3405 14.5206 80.7279 14.4905 81.0859L14.455 81.51L14.6358 81.4588L14.5915 81.1005C14.5348 80.6767 14.5915 79.7559 14.5915 79.1566C14.3398 79.3028 14.2884 80.2675 14.2884 81.0495V81.2907L13.957 81.3418L13.3738 81.4296C13.3738 81.2833 13.5529 81.1445 13.8701 81.0055H13.957L14.751 75.6704C15.0541 74.4571 15.3927 71.2853 15.8464 69.5238C15.8411 69.2785 15.8145 69.0338 15.7667 68.793L16.0272 67.0316H21.2914C21.279 67.0471 21.2719 67.0664 21.2719 67.0865C21.2719 67.1065 21.279 67.1258 21.2914 67.1413L22.1936 67.0316H22.2928C22.2928 67.0828 21.9755 67.1633 22.2361 67.2071C22.2361 67.1413 22.4027 67.0755 22.603 67.0316H25.4885C25.5293 67.0371 25.5701 67.0371 25.6108 67.0316C25.6924 67.0244 25.7739 67.0244 25.8554 67.0316H30.7173L32.7857 81.0349H44.8579L44.5193 78.8422C44.7214 78.6012 44.8153 78.3308 44.9873 78.5062ZM35.3753 41.3274C34.4075 42.2321 33.3866 43.0765 32.3178 43.8562C32.4047 43.805 32.4684 43.8196 32.5553 43.783L32.238 44.0754L31.9562 44.3166C31.802 44.4565 31.6195 44.5634 31.4227 44.6308C31.1639 45.0549 31.1568 44.799 30.7882 45.3033C30.7882 45.3471 30.8538 45.3033 30.8892 45.2595C30.7066 45.4605 30.5099 45.6509 30.3061 45.8295C29.8186 46.0336 29.3667 46.3121 28.9643 46.6554C29.0139 46.8892 29.3312 46.4069 29.4482 46.5312C29.3241 46.5896 29.1309 46.6992 29.0937 46.7942C29.1735 46.838 29.0937 46.8528 29.216 46.86C29.1735 46.933 29.216 46.86 29.1079 46.86C29.0618 46.8499 29.0122 46.8499 28.9643 46.86C28.9129 46.86 28.9058 46.86 28.9643 46.8016C28.943 46.7906 28.92 46.785 28.8952 46.785C28.8722 46.785 28.8491 46.7906 28.8278 46.8016C28.8828 46.9036 28.9253 47.0114 28.9572 47.1232C28.9218 47.0428 28.8845 46.9842 28.8562 46.977C28.8278 46.9696 28.7764 46.9258 28.741 46.977C28.7995 47.1156 28.8278 47.2649 28.8278 47.4154C28.8278 47.5762 28.8278 47.7224 28.8278 47.8978C29.0866 48.2999 28.8704 47.5178 29.037 47.547C29.2018 47.5762 29.2887 47.7296 29.2745 47.547C29.4003 47.8928 29.4925 48.2501 29.5492 48.6141H29.5847C29.6857 49.1144 29.8328 49.6038 30.0242 50.0758L29.8949 49.8712C29.9463 50.0318 29.9764 50.1991 29.9817 50.3682C30.0384 50.3682 30.2192 50.6238 30.2263 50.4704C30.104 50.77 30.5294 51.6251 30.4284 51.9321C30.5294 52.0417 30.5719 51.9321 30.6021 51.8445C30.4638 51.5449 30.3841 51.4571 30.4071 51.2671C30.501 51.5229 30.6233 51.6909 30.6588 51.6325C30.6588 51.9395 30.8112 52.5607 30.7315 52.7434C30.8679 52.9042 30.9761 53.0722 31.0558 52.9626C31.2862 53.7738 30.579 52.7068 30.9193 53.5912C31.1781 53.9492 30.9193 53.138 31.1568 53.6788V53.5692C31.5822 53.8688 31.07 53.9346 31.2579 54.3805C31.4227 54.3805 31.2579 54.0224 31.467 54.2928C31.5893 54.7241 31.467 55.0237 31.646 55.3963V55.3013C31.7559 55.5717 31.9562 56.0762 32.0572 56.3466C32.0945 56.3466 32.0572 56.31 32.0572 56.2588C32.3036 56.7266 32.0573 56.4926 32.3178 56.858V56.997C32.1282 56.7556 32.0041 56.4686 31.9562 56.1638C31.9562 56.3758 31.7843 56.1126 31.646 56.0176L32.0643 57.0992L31.3447 56.3684L31.4458 56.4854H31.4014L31.2579 56.288L29.8949 54.9433C29.8966 55.0167 29.9143 55.0886 29.9462 55.1542C29.9799 55.22 30.026 55.2777 30.0827 55.3233C29.9232 55.2137 29.9019 55.3233 29.9445 55.4109C29.7867 55.2721 29.4482 54.9945 29.5563 54.9871L29.6272 55.0309C29.6272 54.9799 29.5776 54.8849 29.5563 54.8263C29.3472 54.6291 29.3968 54.8263 29.3312 54.7899C28.9643 54.4755 29.4411 54.6145 29.1221 54.3147H29.0512C28.9448 54.1706 28.8473 54.0192 28.7623 53.8616L28.2146 53.328C28.0923 53.5108 28.7764 53.8104 28.8491 54.0588C28.64 53.942 28.8491 54.249 28.8491 54.3659L28.4166 53.7738C28.3511 53.7738 28.0994 53.7228 28.0781 53.5546H28.1206C27.9327 53.3354 28.0692 53.3062 27.8689 53.16C27.8246 53.16 27.8689 53.2404 27.8689 53.2624C27.6881 53.1234 27.775 53.087 27.6811 52.9626C27.5871 52.8384 27.6811 53.1234 27.5286 53.0138C27.4134 52.7507 27.2043 52.7434 27.0465 52.5825C27.2043 52.5387 26.7151 51.9759 26.8728 51.9759L26.6424 51.7567C26.6424 51.8663 26.692 51.9833 26.591 51.9833L26.9083 52.2829C26.7222 52.3779 26.3393 51.5521 25.9706 51.5083C25.8253 51.3588 25.6569 51.233 25.4744 51.1355L25.6463 51.0624C25.4602 50.9308 25.3361 50.9528 25.3077 50.9674C25.2262 50.8744 25.1376 50.7888 25.0419 50.7116C25.0419 50.7392 25.0472 50.7662 25.0596 50.7915C25.0702 50.8165 25.0862 50.8391 25.1057 50.8578C24.8965 50.7992 24.9479 50.792 24.9409 50.7116C24.9338 50.6312 24.8611 50.58 24.7955 50.5216L24.8327 50.6458C24.8327 50.5946 24.7601 50.5288 24.7672 50.4924C24.7388 50.4639 24.7157 50.432 24.6945 50.3974C24.7193 50.363 24.7547 50.3392 24.7937 50.3311C24.8345 50.3229 24.877 50.3309 24.9107 50.3534C24.8026 50.2804 24.7087 50.2074 24.6307 50.1416C24.4517 50.3036 24.3081 50.4998 24.2053 50.7188C24.2478 50.7188 24.363 50.7188 24.3418 50.7628C24.3205 50.8066 23.982 51.004 23.9731 50.9088L23.8739 50.9893C23.8756 51.0289 23.8685 51.0686 23.8543 51.1053C23.8384 51.1421 23.8153 51.1749 23.787 51.2013C23.7728 51.2497 23.7445 51.293 23.7072 51.3255C23.5566 51.2744 23.2818 51.6251 23.1737 51.6399C23.2517 51.5515 23.3368 51.4686 23.4254 51.3913C23.2304 51.4425 23.0372 51.4791 22.9788 51.6325C23.296 51.4645 22.8121 51.9907 23.2163 51.6691C23.0727 52.0491 22.9929 51.6691 22.7554 52.0053L22.6189 52.2317C22.72 52.2829 22.9504 51.9979 22.9362 52.0637L22.798 52.1733C22.9787 52.1075 23.4183 51.6325 23.787 51.4425L23.2375 52.0271C22.8281 52.3267 22.4169 52.7141 22.0057 53.0796C21.5236 53.5267 21.0096 53.937 20.469 54.3074H20.5133C20.5133 54.3074 20.5133 54.3074 20.5133 54.2416L20.469 54.3147L20.3112 54.3586C20.095 54.6949 19.698 55.0895 19.2938 55.5645C19.4374 55.421 19.5508 55.2494 19.6253 55.0603C19.6253 54.8921 19.6696 54.8263 19.3665 55.1553C19.2867 55.3307 19.4746 55.1553 19.1999 55.4841C19.3523 55.2941 19.2938 55.2795 19.1999 55.3671C18.9819 55.5973 18.7798 55.8414 18.5937 56.098C18.6806 56.0359 18.7568 55.9593 18.817 55.8715C18.8755 55.8715 18.3987 56.3538 18.5654 56.2808L18.2623 56.5292C17.9663 56.8874 18.2623 56.6754 18.1116 56.858C17.7571 57.1432 17.649 57.1212 17.5267 57.1358C17.6419 56.8508 17.75 56.5878 17.8511 56.3612C17.7642 56.5 17.4399 56.9896 17.5338 56.8362C17.6136 56.4342 18.1984 55.3013 18.3633 54.8045C18.28 54.9781 18.2055 55.156 18.14 55.3379C18.3633 54.5413 18.5512 53.8324 18.7461 53.1088C18.8472 52.7361 18.9482 52.3779 19.0492 51.9541C19.1503 51.5301 19.1644 51.3987 19.2141 51.099L19.4605 50.8724V50.5654C19.7086 49.5373 20.0365 48.5304 20.4406 47.5542C20.5487 47.2254 20.3892 47.3204 20.3892 47.145C20.3892 46.9696 20.4619 46.9258 20.4902 46.882L20.6054 46.7504C20.6054 46.6626 20.6054 46.6262 20.3963 46.4142C20.4406 46.5166 20.4761 46.7358 20.2385 46.5458C20.2403 46.4899 20.2261 46.4345 20.196 46.3875C20.1676 46.3404 20.1233 46.3036 20.0719 46.2826L20.1162 46.3849C19.9355 46.3265 19.8486 46.1583 19.5455 45.9463C19.0811 45.5436 18.6841 45.0671 18.3704 44.5358C17.9166 44.1778 18.2977 44.7186 18.1896 44.6746C18.537 44.8867 18.3846 44.8794 18.4147 44.9817C18.2835 44.8063 18.1045 44.6162 17.945 44.6382C17.7518 44.4837 17.5817 44.3015 17.4399 44.0974C17.5267 44.2288 17.6632 44.2582 17.5923 44.0974C17.5196 43.9366 17.3246 43.8928 17.174 43.783C17.0216 43.6734 16.777 43.498 16.7628 43.5858L13.6468 41.057L17.4044 40.8232C17.8652 40.8742 17.0942 40.867 17.3459 40.9108C17.9663 40.9766 17.8652 40.8232 18.1612 40.9108L18.0389 40.8378C18.4891 40.8336 18.9394 40.8778 19.3807 40.9692C19.308 40.8816 19.7263 40.8742 19.3807 40.8378C19.5898 40.8378 19.8132 40.3992 19.978 40.4796L19.7688 40.8888C19.7688 40.9254 20.0719 40.8888 20.0507 40.8888C20.212 40.7952 20.3874 40.7285 20.57 40.6916C20.6285 40.582 20.3112 40.6258 20.1375 40.6404C20.1021 40.4724 20.7136 40.4942 20.4548 40.3628C20.8305 40.3628 20.4052 40.4504 20.6356 40.4942L20.9528 40.443L20.7065 40.5088C20.9812 40.5088 21.0822 40.6624 21.4279 40.5528C21.5502 40.587 21.6689 40.6335 21.7824 40.6916C21.7824 40.56 21.8834 40.6916 21.9472 40.6258L21.8603 40.5454C21.8727 40.5508 21.8869 40.5537 21.9011 40.5537C21.9135 40.5537 21.9277 40.5508 21.9401 40.5454C21.9419 40.5187 21.9419 40.4918 21.9401 40.465C21.8905 40.465 21.8905 40.465 21.8976 40.465C21.9047 40.465 21.8976 40.465 21.8533 40.465C21.9117 40.5308 21.9756 40.5308 21.9986 40.6112C22.1422 40.6112 22.2219 40.772 22.3797 40.0484C22.33 39.7267 22.2006 40.3408 22.1067 40.1874C22.2148 39.5003 22.6189 37.2638 22.6969 36.4087C22.7696 35.3198 23.0869 35.6779 23.2163 34.5816C23.094 34.874 23.2163 33.7776 23.1525 33.5365L23.0213 33.9238C23.0798 33.6095 23.0869 33.2733 23.0213 33.3391L23.1383 30.7958C23.1542 30.5647 23.1542 30.3326 23.1383 30.1015C23.2127 29.9598 23.2765 29.8133 23.3315 29.6629V29.3195C23.5123 28.3474 23.2535 28.0112 23.3315 27.1853C23.4839 26.6299 23.3971 27.5362 23.5708 25.7236C23.5052 25.7965 23.4485 25.8776 23.4041 25.9649C23.6417 23.8379 23.5123 25.7382 23.7072 23.9695C23.6487 24.642 23.8224 24.145 23.7072 25.2412C23.8668 24.3452 23.9678 23.4393 24.0103 22.5298C24.0688 22.971 24.1043 23.415 24.1184 23.8599L24.2337 24.1011C24.2762 22.9757 24.2833 22.7345 24.3489 22.1644C24.3489 21.9816 24.3489 21.8428 24.3489 21.7258V22.0182C24.4251 21.7671 24.4836 21.5105 24.5225 21.2508C24.5225 21.0754 24.5225 20.9292 24.5225 20.7903C24.5722 21.2825 24.6537 21.7709 24.7672 22.252V22.9317V22.4494C24.7087 22.0036 24.6449 21.9158 24.6803 22.8441C24.7743 24.3058 24.8186 23.0413 24.8611 22.7271C24.8434 22.0442 24.7831 21.3631 24.6803 20.6879C24.7317 19.8549 24.8097 21.7186 24.9692 22.274C24.9692 20.6515 24.8026 20.8123 24.7813 19.3505C24.9178 20.2933 24.9267 21.3824 25.0632 22.274C25.0632 21.6746 24.9409 20.4395 24.9621 19.8403L25.0703 20.3665C24.8327 18.1739 25.1571 19.4383 24.9621 17.3918C25.0773 17.8304 25.0703 19.4602 25.228 20.0083C25.1713 20.0595 25.0419 20.0083 25.1429 21.47L25.2865 22.3616C25.3733 22.4786 25.1996 20.1107 25.2865 20.5637L25.4159 22.2228C25.4159 22.4128 25.3148 21.9158 25.329 22.6395C25.4371 23.1363 25.3875 24.7224 25.4301 25.709C25.4425 26.0642 25.5027 26.4159 25.6108 26.7541C25.6906 28.647 25.9139 30.5619 25.8998 31.6142C25.8998 30.942 26.0504 31.5632 26.1585 31.9066C26.0947 31.1758 26.2312 31.0954 26.3251 31.0954C26.3251 31.5412 26.2525 31.9066 26.1798 31.7094C26.3251 32.4403 26.1798 32.2649 26.311 32.8641C26.4049 33.2515 26.4191 32.5791 26.49 32.6959C26.5839 33.4925 26.3464 33.0029 26.49 33.8508C26.49 33.7923 26.49 33.7119 26.5343 33.763C26.6034 34.1324 26.6034 34.5118 26.5343 34.8812C26.7718 35.2832 26.6708 36.2917 26.8374 36.1017C26.9154 37.2492 26.7222 35.9849 26.6849 36.2407C26.6956 36.7675 26.7612 37.2919 26.8799 37.8046C26.8746 37.5333 26.8516 37.2623 26.8161 36.9934L26.9597 37.1688C27.2043 38.5283 26.786 39.9241 27.0465 40.538C27.0465 40.1946 27.1103 40.4066 27.1546 40.2238C27.1546 40.275 27.1901 40.4212 27.2043 40.5234C27.2184 40.6258 27.2043 40.5966 27.1405 40.5234C27.16 40.5876 27.1919 40.6472 27.2344 40.6988V40.7792C27.2734 40.8187 27.3053 40.8659 27.3266 40.9182C27.5268 40.8928 27.7254 40.8513 27.9186 40.7938C28.64 40.9328 29.2958 40.7938 30.0384 40.9546H29.9888C30.5719 40.9546 29.7141 41.1082 30.3202 41.1374C30.2476 40.9766 30.6942 41.057 30.8892 40.9838C31.086 40.9705 31.2845 40.9705 31.4812 40.9838L32.2735 41.0642C32.7964 41.0972 33.3174 41.0947 33.8385 41.057C33.8829 41.057 33.8386 40.9912 33.6454 40.9692C34.4235 40.9692 35.0296 41.0278 35.6571 41.0716L35.2743 41.3932L35.3753 41.3274Z" fill="url(#paint0_linear)"></path><path d="M43.9873 77.5062C43.5052 76.2125 44.0528 75.138 43.3244 73.0771C43.3244 72.7555 43.4981 73.4863 43.5477 73.3475C43.3031 72.7027 43.1631 72.0212 43.1365 71.3304L43.195 71.4692C42.7412 68.7212 42.7182 67.6614 42.3726 64.665L42.2077 64.7746C42.1741 64.4344 42.1741 64.0917 42.2077 63.7513C41.7965 62.8158 42.4736 65.5858 42.0411 64.7016C42.307 64.0657 41.3197 60.0751 41.7167 59.7317C41.5643 58.7158 41.5218 59.9071 41.3711 58.8912L41.4562 58.6938L41.2541 58.3504C41.1832 57.6999 41.2914 57.4441 41.3995 57.4733C41.4314 57.6947 41.4739 57.9143 41.5289 58.1311C41.4385 57.211 41.3002 56.2963 41.1177 55.3904L41.1832 56.3332C40.6426 53.5047 40.3094 50.1867 39.6253 47.4095L39.5526 47.5775C39.0563 45.4654 39.4161 45.977 38.9837 43.7112V43.799C38.7993 43.2449 38.6681 42.6748 38.5866 42.0961C38.7958 42.6954 38.6593 41.1021 38.911 41.8767C38.3633 39.6038 38.5795 40.7367 37.9662 39.1726L38.0885 38.8803C37.8103 38.3438 37.6259 37.763 37.5409 37.1628C37.8369 38.1129 37.7004 36.5124 38.0531 37.5794C38.0531 35.3065 37.1297 34.02 37.5267 33.048C36.8709 31.8787 37.5692 35.0287 37.3672 34.4075C37.2892 34.8753 36.8709 33.45 36.8053 32.7265C36.7397 32.0029 37.2307 31.5571 36.9276 29.6642C36.9276 29.8542 36.9932 29.8688 37.0215 30.0588C37.0215 29.3645 36.6404 28.6483 36.7043 27.8078C36.3374 27.289 36.5536 26.6824 36.1495 26.4996L36.5022 28.2391C36.2505 27.245 35.6656 26.2876 35.6302 24.7017C35.7844 25.0058 35.9102 25.324 36.0059 25.6517C36.0485 25.1913 35.7879 24.7382 35.8322 24.2558C36.2364 24.424 36.2434 26.368 36.6972 27.4496C36.7769 26.96 36.114 25.4325 36.6032 25.9879C35.9616 25.1841 36.3799 24.1242 35.7808 22.8233L36.0272 22.9183C35.896 22.5955 35.7968 22.2601 35.7312 21.9171L36.1353 22.6041C35.717 21.559 36.0414 20.6088 35.7525 19.6075C36.0839 21.6979 35.5504 20.068 35.515 20.945C34.7936 18.4602 35.8039 19.3811 35.3625 16.8231C35.4139 17.2835 35.3625 17.9558 35.219 17.4443C35.1605 16.91 35.1605 16.3707 35.219 15.8364C34.8733 13.9215 35.024 16.136 34.7581 15.3248C34.9371 14.667 34.4976 14.3893 34.2743 13.5634H34.5117C34.3168 11.3708 33.9357 13.0153 33.7904 11.0566L34.2459 11.8532L33.9995 10.8447L34.3026 11.0346C34.0137 10.2201 33.8524 9.36416 33.8276 8.49862C33.7053 8.76904 33.388 8.3963 33.2285 7.43888C33.2639 6.7738 33.5103 7.78238 33.2285 6.4303C33.3721 6.59453 33.4749 6.79072 33.528 7.00286C33.5812 7.21497 33.5865 7.43702 33.5387 7.65083C33.6255 7.70199 33.7336 7.93585 33.8134 7.99433C33.8081 7.22491 33.7248 6.45811 33.5599 5.70675C33.5759 5.88667 33.5759 6.06767 33.5599 6.24758L32.9254 4.31812C32.9626 3.99654 33.0707 4.23042 33.1789 4.46429C33.092 4.06963 32.9396 3.80651 32.8315 3.22183C33.0406 3.34608 33.2285 3.2803 33.4518 4.10617L33.0477 2.64446L32.7162 1.42393L31.7645 1.53356L31.3834 1.58471C31.2522 1.49701 30.4227 1.35084 30.662 1.27776C29.6304 1.16813 28.1309 1.65049 26.7608 1.50432C26.5978 1.56631 26.4276 1.60088 26.2557 1.60664C24.9441 1.45241 23.6218 1.45241 22.3102 1.60664L21.4453 1.25583C20.2559 1.33623 22.6204 1.69434 20.6299 1.82591C19.2244 1.93553 20.1106 1.52625 19.6143 1.43124C18.5792 1.76512 17.4838 1.85019 16.4115 1.67972C16.7979 1.65817 17.186 1.65817 17.5724 1.67972L16.5852 1.4824C17.7745 1.17544 18.6324 1.27776 17.7089 1.01465C17.6008 1.53356 15.2789 1.27775 14.2402 1.46778L12.7992 1.73088V2.6737C12.7992 2.96604 12.856 3.16337 12.9853 3.21451L12.7478 3.84305C12.7851 3.66034 12.7478 3.6238 12.7851 3.44109C12.2728 4.65432 13.1094 4.44967 12.7851 6.06487C12.6468 6.62763 12.4891 7.00767 12.4749 6.60571L12.4377 7.89933C12.3668 8.25743 12.2657 8.15512 12.3366 7.78968L12.085 9.72646C12.1505 10.1428 12.1931 10.5624 12.2143 10.9835C12.0495 11.4586 12.2143 10.7277 12.085 10.8373V11.9336C11.8474 12.3356 11.8244 11.4293 11.9626 10.6912C11.1615 11.5828 11.9627 11.6047 11.2413 13.695L11.3139 12.6718C10.8442 13.2638 10.8584 14.075 10.4472 15.1713C10.6067 14.9228 11.3848 12.9787 11.3636 14.17C11.2218 14.6206 11.1686 15.0946 11.204 15.566C10.9736 15.566 10.931 16.1507 10.8229 16.9181L10.5269 16.8157C10.511 17.2597 10.5748 17.7031 10.7148 18.124C10.534 19.0375 10.2681 19.1911 10.036 19.3737C9.7559 20.8354 10.5783 18.4163 10.3603 20.1704C10.0927 21.3442 9.96683 22.5468 9.98633 23.7516C9.74882 24.592 9.82681 23.5688 9.69033 23.8612L9.81263 24.6651C9.81263 24.8479 9.71159 24.7748 9.68323 24.7382C9.68323 25.3961 9.97923 24.8405 9.89947 25.8637C10.1955 26.1853 9.08413 27.8516 9.26492 29.1599C9.13553 29.4523 9.10718 28.9771 8.96893 29.0503C8.92284 30.0253 8.94766 31.0024 9.0416 31.9737L8.65166 33.1358C9.02033 32.2953 9.11427 33.4574 9.17808 34.4805L9.08414 34.6413C8.96184 34.2247 8.81828 33.83 8.62331 33.9104C8.64458 34.0876 8.64458 34.2668 8.62331 34.4441C8.58786 34.3344 8.55772 34.2613 8.51518 34.2979C8.47087 34.3344 8.5152 34.5245 8.55773 34.7949L8.16246 35.0945L8.28476 35.2041L7.74417 37.2212C7.98877 38.9564 8.0508 40.7129 7.93027 42.4616C7.77252 41.8403 7.54211 42.2715 7.2532 42.1911C7.66441 41.6063 7.40387 40.364 7.65733 39.1654C7.52617 39.7866 7.40387 39.6258 7.3826 39.4578L7.32586 41.6503C7.09367 41.5625 7.07241 42.0815 6.88453 42.6296C7.43399 42.2788 6.95012 44.2887 6.95721 45.1875C6.78351 45.1875 6.65411 44.9757 6.86326 43.9159C6.31558 45.0341 7.18763 45.5312 6.69843 46.642C6.73388 46.3788 6.78351 46.24 6.69843 46.1232C6.74806 46.759 6.40242 48.2279 6.31557 47.8553C6.33517 47.714 5.12084 52.5329 5.8831 53.1978C5.68281 53.0942 5.50557 52.95 5.36378 52.7738L5.96994 55.0616L5.81042 56.0334C5.42048 56.0992 4.94548 56.2236 4.96675 55.2004C4.79128 55.783 4.70088 56.3889 4.70088 56.9983C4.79305 56.7279 5.31238 56.377 5.28402 56.7717C4.94194 57.3929 4.6548 58.0434 4.42615 58.7158C4.56972 58.3066 5.03942 58.862 4.91712 59.527C4.85154 59.41 4.36765 59.527 4.35347 59.242L4.6282 60.9887C4.59275 60.5649 4.18154 60.8425 3.97239 61.1933C3.92099 61.8259 3.83592 62.4555 3.71894 63.0791L3.95822 62.392C3.57537 64.2557 4.41906 64.3653 4.0947 66.2217C4.02203 65.9805 3.50269 65.5566 3.27936 66.4921C3.52396 67.0131 3.73313 67.5503 3.90683 68.1L3.58245 70.1829C3.36443 69.2739 3.19074 68.3543 3.06313 67.4275C2.83271 68.1072 2.85398 67.5957 2.70333 68.648C2.49418 68.9916 2.56507 68.0342 2.60938 67.7272L2.1255 70.1609C2.46404 70.1025 2.1255 72.0832 2.43568 72.032L2.52252 69.3205C2.86106 69.262 3.18543 71.0016 2.86107 72.7263C2.65901 73.1501 2.34173 72.3024 2.22652 72.3243C2.26552 72.9376 2.2159 73.5534 2.07588 74.1514L2.01739 73.3841C1.74266 74.3342 2.19817 75.0284 1.70721 76.1393C1.62036 76.5341 1.10102 77.2722 1.28181 77.3672C1.43779 77.2017 1.63099 77.0776 1.84369 77.0063C2.05815 76.9347 2.2868 76.9183 2.50835 76.9579L2.29212 78.3246L2.17691 78.2442L2.13968 78.5074H2.26199H2.0103L2.21944 78.7559L2.04574 79.8813C1.75151 79.9763 1.60619 78.7193 1.32437 79.1505C1.41122 79.1943 1.4626 79.5745 1.47678 79.7279C1.38284 79.9909 1.31018 79.8301 1.23928 79.9179L1 80.2249L2.02447 80.8534C2.19463 80.8945 2.37365 80.8945 2.54381 80.8534C2.69624 80.5172 4.40488 80.8534 2.97628 80.5684C3.64273 80.5534 4.30917 80.5729 4.97384 80.6268C4.75051 80.4808 5.24148 80.2103 5.85475 80.0129H7.05823C8.88208 80.0129 9.87111 80.1957 11.5727 80.1957C11.7322 80.276 12.5529 80.3784 12.2072 80.5172C12.4696 80.4314 12.7408 80.3749 13.0155 80.3492H13.3469V80.0567C13.3469 80.0055 13.3469 79.9399 13.3469 79.8741C13.5773 79.3405 13.5206 79.7279 13.4905 80.0859L13.455 80.51L13.6358 80.4588L13.5915 80.1005C13.5348 79.6767 13.5915 78.7559 13.5915 78.1566C13.3398 78.3028 13.2884 79.2675 13.2884 80.0495V80.2907L12.957 80.3418L12.3738 80.4296C12.3738 80.2833 12.5529 80.1445 12.8701 80.0055H12.957L13.751 74.6704C14.0541 73.4571 14.3927 70.2853 14.8464 68.5238C14.8411 68.2785 14.8145 68.0338 14.7667 67.793L15.0272 66.0316H20.2914C20.279 66.0471 20.2719 66.0664 20.2719 66.0865C20.2719 66.1065 20.279 66.1258 20.2914 66.1413L21.1936 66.0316H21.2928C21.2928 66.0828 20.9755 66.1633 21.2361 66.2071C21.2361 66.1413 21.4027 66.0755 21.603 66.0316H24.4885C24.5293 66.0371 24.5701 66.0371 24.6108 66.0316C24.6924 66.0244 24.7739 66.0244 24.8554 66.0316H29.7173L31.7857 80.0349H43.8579L43.5193 77.8422C43.7214 77.6012 43.8153 77.3308 43.9873 77.5062ZM34.3753 40.3274C33.4075 41.2321 32.3866 42.0765 31.3178 42.8562C31.4047 42.805 31.4684 42.8196 31.5553 42.783L31.238 43.0754L30.9562 43.3166C30.802 43.4565 30.6195 43.5634 30.4227 43.6308C30.1639 44.0549 30.1568 43.799 29.7882 44.3033C29.7882 44.3471 29.8538 44.3033 29.8892 44.2595C29.7066 44.4605 29.5099 44.6509 29.3061 44.8295C28.8186 45.0336 28.3667 45.3121 27.9643 45.6554C28.0139 45.8892 28.3312 45.4069 28.4482 45.5312C28.3241 45.5896 28.1309 45.6992 28.0937 45.7942C28.1735 45.838 28.0937 45.8528 28.216 45.86C28.1735 45.933 28.216 45.86 28.1079 45.86C28.0618 45.8499 28.0122 45.8499 27.9643 45.86C27.9129 45.86 27.9058 45.86 27.9643 45.8016C27.943 45.7906 27.92 45.785 27.8952 45.785C27.8722 45.785 27.8491 45.7906 27.8278 45.8016C27.8828 45.9036 27.9253 46.0114 27.9572 46.1232C27.9218 46.0428 27.8845 45.9842 27.8562 45.977C27.8278 45.9696 27.7764 45.9258 27.741 45.977C27.7995 46.1156 27.8278 46.2649 27.8278 46.4154C27.8278 46.5762 27.8278 46.7224 27.8278 46.8978C28.0866 47.2999 27.8704 46.5178 28.037 46.547C28.2018 46.5762 28.2887 46.7296 28.2745 46.547C28.4003 46.8928 28.4925 47.2501 28.5492 47.6141H28.5847C28.6857 48.1144 28.8328 48.6038 29.0242 49.0758L28.8949 48.8712C28.9463 49.0318 28.9764 49.1991 28.9817 49.3682C29.0384 49.3682 29.2192 49.6238 29.2263 49.4704C29.104 49.77 29.5294 50.6251 29.4284 50.9321C29.5294 51.0417 29.5719 50.9321 29.6021 50.8445C29.4638 50.5449 29.3841 50.4571 29.4071 50.2671C29.501 50.5229 29.6233 50.6909 29.6588 50.6325C29.6588 50.9395 29.8112 51.5607 29.7315 51.7434C29.8679 51.9042 29.9761 52.0722 30.0558 51.9626C30.2862 52.7738 29.579 51.7068 29.9193 52.5912C30.1781 52.9492 29.9193 52.138 30.1568 52.6788V52.5692C30.5822 52.8688 30.07 52.9346 30.2579 53.3805C30.4227 53.3805 30.2579 53.0224 30.467 53.2928C30.5893 53.7241 30.467 54.0237 30.646 54.3963V54.3013C30.7559 54.5717 30.9562 55.0762 31.0572 55.3466C31.0945 55.3466 31.0572 55.31 31.0572 55.2588C31.3036 55.7266 31.0573 55.4926 31.3178 55.858V55.997C31.1282 55.7556 31.0041 55.4686 30.9562 55.1638C30.9562 55.3758 30.7843 55.1126 30.646 55.0176L31.0643 56.0992L30.3447 55.3684L30.4458 55.4854H30.4014L30.2579 55.288L28.8949 53.9433C28.8966 54.0167 28.9143 54.0886 28.9462 54.1542C28.9799 54.22 29.026 54.2777 29.0827 54.3233C28.9232 54.2137 28.9019 54.3233 28.9445 54.4109C28.7867 54.2721 28.4482 53.9945 28.5563 53.9871L28.6272 54.0309C28.6272 53.9799 28.5776 53.8849 28.5563 53.8263C28.3472 53.6291 28.3968 53.8263 28.3312 53.7899C27.9643 53.4755 28.4411 53.6145 28.1221 53.3147H28.0512C27.9448 53.1706 27.8473 53.0192 27.7623 52.8616L27.2146 52.328C27.0923 52.5108 27.7764 52.8104 27.8491 53.0588C27.64 52.942 27.8491 53.249 27.8491 53.3659L27.4166 52.7738C27.3511 52.7738 27.0994 52.7228 27.0781 52.5546H27.1206C26.9327 52.3354 27.0692 52.3062 26.8689 52.16C26.8246 52.16 26.8689 52.2404 26.8689 52.2624C26.6881 52.1234 26.775 52.087 26.6811 51.9626C26.5871 51.8384 26.6811 52.1234 26.5286 52.0138C26.4134 51.7507 26.2043 51.7434 26.0465 51.5825C26.2043 51.5387 25.7151 50.9759 25.8728 50.9759L25.6424 50.7567C25.6424 50.8663 25.692 50.9833 25.591 50.9833L25.9083 51.2829C25.7222 51.3779 25.3393 50.5521 24.9706 50.5083C24.8253 50.3588 24.6569 50.233 24.4744 50.1355L24.6463 50.0624C24.4602 49.9308 24.3361 49.9528 24.3077 49.9674C24.2262 49.8744 24.1376 49.7888 24.0419 49.7116C24.0419 49.7392 24.0472 49.7662 24.0596 49.7915C24.0702 49.8165 24.0862 49.8391 24.1057 49.8578C23.8965 49.7992 23.9479 49.792 23.9409 49.7116C23.9338 49.6312 23.8611 49.58 23.7955 49.5216L23.8327 49.6458C23.8327 49.5946 23.7601 49.5288 23.7672 49.4924C23.7388 49.4639 23.7157 49.432 23.6945 49.3974C23.7193 49.363 23.7547 49.3392 23.7937 49.3311C23.8345 49.3229 23.877 49.3309 23.9107 49.3534C23.8026 49.2804 23.7087 49.2074 23.6307 49.1416C23.4517 49.3036 23.3081 49.4998 23.2053 49.7188C23.2478 49.7188 23.363 49.7188 23.3418 49.7628C23.3205 49.8066 22.982 50.004 22.9731 49.9088L22.8739 49.9893C22.8756 50.0289 22.8685 50.0686 22.8543 50.1053C22.8384 50.1421 22.8153 50.1749 22.787 50.2013C22.7728 50.2497 22.7445 50.293 22.7072 50.3255C22.5566 50.2744 22.2818 50.6251 22.1737 50.6399C22.2517 50.5515 22.3368 50.4686 22.4254 50.3913C22.2304 50.4425 22.0372 50.4791 21.9788 50.6325C22.296 50.4645 21.8121 50.9907 22.2163 50.6691C22.0727 51.0491 21.9929 50.6691 21.7554 51.0053L21.6189 51.2317C21.72 51.2829 21.9504 50.9979 21.9362 51.0637L21.798 51.1733C21.9787 51.1075 22.4183 50.6325 22.787 50.4425L22.2375 51.0271C21.8281 51.3267 21.4169 51.7141 21.0057 52.0796C20.5236 52.5267 20.0096 52.937 19.469 53.3074H19.5133C19.5133 53.3074 19.5133 53.3074 19.5133 53.2416L19.469 53.3147L19.3112 53.3586C19.095 53.6949 18.698 54.0895 18.2938 54.5645C18.4374 54.421 18.5508 54.2494 18.6253 54.0603C18.6253 53.8921 18.6696 53.8263 18.3665 54.1553C18.2867 54.3307 18.4746 54.1553 18.1999 54.4841C18.3523 54.2941 18.2938 54.2795 18.1999 54.3671C17.9819 54.5973 17.7798 54.8414 17.5937 55.098C17.6806 55.0359 17.7568 54.9593 17.817 54.8715C17.8755 54.8715 17.3987 55.3538 17.5654 55.2808L17.2623 55.5292C16.9663 55.8874 17.2623 55.6754 17.1116 55.858C16.7571 56.1432 16.649 56.1212 16.5267 56.1358C16.6419 55.8508 16.75 55.5878 16.8511 55.3612C16.7642 55.5 16.4399 55.9896 16.5338 55.8362C16.6136 55.4342 17.1984 54.3013 17.3633 53.8045C17.28 53.9781 17.2055 54.156 17.14 54.3379C17.3633 53.5413 17.5512 52.8324 17.7461 52.1088C17.8472 51.7361 17.9482 51.3779 18.0492 50.9541C18.1503 50.5301 18.1644 50.3987 18.2141 50.099L18.4605 49.8724V49.5654C18.7086 48.5373 19.0365 47.5304 19.4406 46.5542C19.5487 46.2254 19.3892 46.3204 19.3892 46.145C19.3892 45.9696 19.4619 45.9258 19.4902 45.882L19.6054 45.7504C19.6054 45.6626 19.6054 45.6262 19.3963 45.4142C19.4406 45.5166 19.4761 45.7358 19.2385 45.5458C19.2403 45.4899 19.2261 45.4345 19.196 45.3875C19.1676 45.3404 19.1233 45.3036 19.0719 45.2826L19.1162 45.3849C18.9355 45.3265 18.8486 45.1583 18.5455 44.9463C18.0811 44.5436 17.6841 44.0671 17.3704 43.5358C16.9166 43.1778 17.2977 43.7186 17.1896 43.6746C17.537 43.8867 17.3846 43.8794 17.4147 43.9817C17.2835 43.8063 17.1045 43.6162 16.945 43.6382C16.7518 43.4837 16.5817 43.3015 16.4399 43.0974C16.5267 43.2288 16.6632 43.2582 16.5923 43.0974C16.5196 42.9366 16.3246 42.8928 16.174 42.783C16.0216 42.6734 15.777 42.498 15.7628 42.5858L12.6468 40.057L16.4044 39.8232C16.8652 39.8742 16.0942 39.867 16.3459 39.9108C16.9663 39.9766 16.8652 39.8232 17.1612 39.9108L17.0389 39.8378C17.4891 39.8336 17.9394 39.8778 18.3807 39.9692C18.308 39.8816 18.7263 39.8742 18.3807 39.8378C18.5898 39.8378 18.8132 39.3992 18.978 39.4796L18.7688 39.8888C18.7688 39.9254 19.0719 39.8888 19.0507 39.8888C19.212 39.7952 19.3874 39.7285 19.57 39.6916C19.6285 39.582 19.3112 39.6258 19.1375 39.6404C19.1021 39.4724 19.7136 39.4942 19.4548 39.3628C19.8305 39.3628 19.4052 39.4504 19.6356 39.4942L19.9528 39.443L19.7065 39.5088C19.9812 39.5088 20.0822 39.6624 20.4279 39.5528C20.5502 39.587 20.6689 39.6335 20.7824 39.6916C20.7824 39.56 20.8834 39.6916 20.9472 39.6258L20.8603 39.5454C20.8727 39.5508 20.8869 39.5537 20.9011 39.5537C20.9135 39.5537 20.9277 39.5508 20.9401 39.5454C20.9419 39.5187 20.9419 39.4918 20.9401 39.465C20.8905 39.465 20.8905 39.465 20.8976 39.465C20.9047 39.465 20.8976 39.465 20.8533 39.465C20.9117 39.5308 20.9756 39.5308 20.9986 39.6112C21.1422 39.6112 21.2219 39.772 21.3797 39.0484C21.33 38.7267 21.2006 39.3408 21.1067 39.1874C21.2148 38.5003 21.6189 36.2638 21.6969 35.4087C21.7696 34.3198 22.0869 34.6779 22.2163 33.5816C22.094 33.874 22.2163 32.7776 22.1525 32.5365L22.0213 32.9238C22.0798 32.6095 22.0869 32.2733 22.0213 32.3391L22.1383 29.7958C22.1542 29.5647 22.1542 29.3326 22.1383 29.1015C22.2127 28.9598 22.2765 28.8133 22.3315 28.6629V28.3195C22.5123 27.3474 22.2535 27.0112 22.3315 26.1853C22.4839 25.6299 22.3971 26.5362 22.5708 24.7236C22.5052 24.7965 22.4485 24.8776 22.4041 24.9649C22.6417 22.8379 22.5123 24.7382 22.7072 22.9695C22.6487 23.642 22.8224 23.145 22.7072 24.2412C22.8668 23.3452 22.9678 22.4393 23.0103 21.5298C23.0688 21.971 23.1043 22.415 23.1184 22.8599L23.2337 23.1011C23.2762 21.9757 23.2833 21.7345 23.3489 21.1644C23.3489 20.9816 23.3489 20.8428 23.3489 20.7258V21.0182C23.4251 20.7671 23.4836 20.5105 23.5225 20.2508C23.5225 20.0754 23.5225 19.9292 23.5225 19.7903C23.5722 20.2825 23.6537 20.7709 23.7672 21.252V21.9317V21.4494C23.7087 21.0036 23.6449 20.9158 23.6803 21.8441C23.7743 23.3058 23.8186 22.0413 23.8611 21.7271C23.8434 21.0442 23.7831 20.3631 23.6803 19.6879C23.7317 18.8549 23.8097 20.7186 23.9692 21.274C23.9692 19.6515 23.8026 19.8123 23.7813 18.3505C23.9178 19.2933 23.9267 20.3824 24.0632 21.274C24.0632 20.6746 23.9409 19.4395 23.9621 18.8403L24.0703 19.3665C23.8327 17.1739 24.1571 18.4383 23.9621 16.3918C24.0773 16.8304 24.0703 18.4602 24.228 19.0083C24.1713 19.0595 24.0419 19.0083 24.1429 20.47L24.2865 21.3616C24.3733 21.4786 24.1996 19.1107 24.2865 19.5637L24.4159 21.2228C24.4159 21.4128 24.3148 20.9158 24.329 21.6395C24.4371 22.1363 24.3875 23.7224 24.4301 24.709C24.4425 25.0642 24.5027 25.4159 24.6108 25.7541C24.6906 27.647 24.9139 29.5619 24.8998 30.6142C24.8998 29.942 25.0504 30.5632 25.1585 30.9066C25.0947 30.1758 25.2312 30.0954 25.3251 30.0954C25.3251 30.5412 25.2525 30.9066 25.1798 30.7094C25.3251 31.4403 25.1798 31.2649 25.311 31.8641C25.4049 32.2515 25.4191 31.5791 25.49 31.6959C25.5839 32.4925 25.3464 32.0029 25.49 32.8508C25.49 32.7923 25.49 32.7119 25.5343 32.763C25.6034 33.1324 25.6034 33.5118 25.5343 33.8812C25.7718 34.2832 25.6708 35.2917 25.8374 35.1017C25.9154 36.2492 25.7222 34.9849 25.6849 35.2407C25.6956 35.7675 25.7612 36.2919 25.8799 36.8046C25.8746 36.5333 25.8516 36.2623 25.8161 35.9934L25.9597 36.1688C26.2043 37.5283 25.786 38.9241 26.0465 39.538C26.0465 39.1946 26.1103 39.4066 26.1546 39.2238C26.1546 39.275 26.1901 39.4212 26.2043 39.5234C26.2184 39.6258 26.2043 39.5966 26.1405 39.5234C26.16 39.5876 26.1919 39.6472 26.2344 39.6988V39.7792C26.2734 39.8187 26.3053 39.8659 26.3266 39.9182C26.5268 39.8928 26.7254 39.8513 26.9186 39.7938C27.64 39.9328 28.2958 39.7938 29.0384 39.9546H28.9888C29.5719 39.9546 28.7141 40.1082 29.3202 40.1374C29.2476 39.9766 29.6942 40.057 29.8892 39.9838C30.086 39.9705 30.2845 39.9705 30.4812 39.9838L31.2735 40.0642C31.7964 40.0972 32.3174 40.0947 32.8385 40.057C32.8829 40.057 32.8386 39.9912 32.6454 39.9692C33.4235 39.9692 34.0296 40.0278 34.6571 40.0716L34.2743 40.3932L34.3753 40.3274Z" fill="#F7FCFD"></path><defs><linearGradient id="paint0_linear" x1="44.9873" y1="-4.83132" x2="-24.0273" y2="29.381" gradientUnits="userSpaceOnUse"><stop stop-color="#1278A1"></stop><stop offset="1" stop-color="#4DBD94"></stop></linearGradient></defs></svg>