<?xml version="1.0" encoding="UTF-8"?>
<svg version="1.1" xmlns="http://www.w3.org/2000/svg" width="32" height="32">
<path d="M0 0 C1.98 0 3.96 0 6 0 C5.31528263 6.9042335 4.25204517 13.67726111 3 20.5 C2.82210938 21.5003125 2.64421875 22.500625 2.4609375 23.53125 C2.28820312 24.48 2.11546875 25.42875 1.9375 26.40625 C1.78152344 27.26541016 1.62554688 28.12457031 1.46484375 29.00976562 C1 31 1 31 0 32 C-1.66617115 32.04063832 -3.33388095 32.042721 -5 32 C-4.49279908 21.17126036 -2.12424249 10.60054575 0 0 Z " fill="#366FFC" transform="translate(24,0)"/>
<path d="M0 0 C1.98 0 3.96 0 6 0 C5.35731979 3.27146109 4.71031325 6.54205181 4.0625 9.8125 C3.88009766 10.74126953 3.69769531 11.67003906 3.50976562 12.62695312 C3.33251953 13.51962891 3.15527344 14.41230469 2.97265625 15.33203125 C2.81031494 16.15421143 2.64797363 16.9763916 2.48071289 17.82348633 C2 20 2 20 1 23 C-0.98 23 -2.96 23 -5 23 C-4.35901851 19.54074898 -3.71139409 16.08277476 -3.0625 12.625 C-2.88009766 11.64015625 -2.69769531 10.6553125 -2.50976562 9.640625 C-2.33251953 8.69960938 -2.15527344 7.75859375 -1.97265625 6.7890625 C-1.72914429 5.48509521 -1.72914429 5.48509521 -1.48071289 4.15478516 C-1 2 -1 2 0 0 Z " fill="#3770FB" transform="translate(15,9)"/>
<path d="M0 0 C1.98 0 3.96 0 6 0 C5.32418477 6.08233706 4.26361972 12.01314152 3 18 C1.02 18 -0.96 18 -3 18 C-2.51679152 11.7945858 -1.66681876 6.00054754 0 0 Z " fill="#376FFB" transform="translate(5,14)"/>
</svg>
