<svg width="222" height="50" viewBox="0 0 222 300" fill="none" xmlns="http://www.w3.org/2000/svg" style="width: 35px; margin-right: 0px; margin-left: 0px; margin-top: 0px;"><path d="M188.211 158.258L212.263 154.372V157.64H221.958V148.072H212.39V152.629L144.763 162.361C142.94 150.229 137.343 138.978 128.767 130.206L188.61 70.3986H196.962V60.8119H187.375V69.1821L127.568 129.025C120.459 122.113 111.714 117.116 102.149 114.5L113.243 71.3056H118.381V61.7189H108.813V71.3056H111.482L100.588 114.083C96.3771 113.062 92.0648 112.52 87.7327 112.467V9.58669H91.6727V0H82.0134V9.58669H85.9533V112.557C71.0063 112.743 56.7036 118.673 46.0088 129.116L9.58669 92.5489V84.1787H0V93.7653H8.37019L44.8286 130.206C34.2015 141.113 28.2542 155.739 28.2542 170.967C28.2542 186.195 34.2015 200.822 44.8286 211.729L8.37019 248.224H0V257.81H9.58669V249.44L46.0451 212.982C54.4126 221.146 65.0408 226.608 76.5506 228.657C88.0604 230.706 99.9205 229.249 110.592 224.475L141.437 290.431H139.803V300H149.39V290.431H143.253L112.153 223.748C117.838 221.005 123.043 217.363 127.568 212.963L158.247 243.624V252.012H167.815V242.425H159.463L128.767 211.747C134.852 205.513 139.463 197.993 142.26 189.742C145.056 181.491 145.967 172.718 144.926 164.068L166.714 161.145L188.211 158.258ZM115.748 140.827L88.4045 168.171L98.0456 130.696C104.69 132.566 110.771 136.045 115.748 140.827ZM96.3571 130.206L87.6601 164.122V129.189C90.5868 129.22 93.5021 129.561 96.3571 130.206ZM85.9533 129.116V168.843L57.8651 140.827C65.4268 133.547 75.4586 129.39 85.9533 129.189V129.116ZM44.9739 170.876C44.9677 160.081 49.1534 149.704 56.6486 141.935L85.5902 170.876L56.6486 199.927C49.1534 192.157 44.9677 181.781 44.9739 170.985V170.876ZM86.7341 212.637C75.9407 212.631 65.5684 208.447 57.7925 200.962L86.4617 172.274L103.511 209.114C98.2581 211.489 92.5707 212.75 86.8067 212.818L86.7341 212.637ZM105.054 208.388L89.5302 174.816L115.676 200.962C112.574 204.028 109.015 206.595 105.127 208.57L105.054 208.388ZM128.549 170.804C128.555 181.599 124.369 191.976 116.874 199.745L88.6405 171.603L128.367 166.283C128.535 167.845 128.62 169.414 128.621 170.985L128.549 170.804ZM128.077 164.395L89.1308 169.624L116.874 141.862C122.896 148.082 126.836 156.019 128.149 164.576L128.077 164.395Z" fill="white"></path></svg>