<svg fill="none" viewBox="0 0 150 120" xmlns="http://www.w3.org/2000/svg"><path fill="#fff" fill-rule="evenodd" d="M85.783 116.687h32.065c7.521 0 13.921-2.682 19.198-8.047 5.41-5.499 8.115-12.071 8.115-19.716v-61.16c0-7.645-2.705-14.15-8.115-19.515C131.769 2.749 125.369 0 117.848 0H91.645a188.948 188.948 0 00-7.84 26.355h34.043c.924 0 1.386.47 1.386 1.409v61.16c0 .939-.462 1.408-1.386 1.408H80.723a189.684 189.684 0 005.06 26.355zM46.571 17.824h-29.21c-4.781 0-8.89 1.728-12.33 5.184C1.678 26.38 0 30.468 0 35.274v38.44c0 4.805 1.677 8.936 5.032 12.392 3.438 3.372 7.548 5.058 12.328 5.058h24.145A191.913 191.913 0 0140.177 74.6H17.36c-.587 0-.88-.295-.88-.885v-38.44c0-.59.293-.885.88-.885h25.543a189.305 189.305 0 013.668-16.565zm233.057" clip-rule="evenodd"></path></svg>