<?xml version="1.0" standalone="no"?>
<!DOCTYPE svg PUBLIC "-//W3C//DTD SVG 20010904//EN"
 "http://www.w3.org/TR/2001/REC-SVG-20010904/DTD/svg10.dtd">
<svg version="1.0" xmlns="http://www.w3.org/2000/svg"
 width="114.000000pt" height="114.000000pt" viewBox="0 0 114.000000 114.000000"
 preserveAspectRatio="xMidYMid meet">

<g transform="translate(0.000000,114.000000) scale(0.100000,-0.100000)"
fill="#000000" stroke="none">
<path d="M67 1082 l-27 -28 0 -471 0 -470 26 -27 27 -26 472 0 472 0 27 26 26
27 0 470 0 471 -27 28 -27 28 -471 0 -471 0 -27 -28z m164 -442 c37 -21 21
-33 -33 -26 -37 5 -48 3 -38 -4 8 -5 25 -10 37 -10 37 0 53 -11 53 -36 0 -13
-9 -28 -19 -34 -40 -21 -131 -7 -131 21 0 7 17 8 51 4 37 -5 50 -4 45 4 -4 6
-21 11 -37 11 -37 0 -69 16 -69 35 0 36 94 60 141 35z m84 -70 c-1 -37 -4 -45
-20 -45 -15 0 -21 10 -27 40 -8 49 -2 73 20 77 22 5 29 -15 27 -72z m585 70
c0 -5 -9 -10 -20 -10 -11 0 -20 5 -20 10 0 6 9 10 20 10 11 0 20 -4 20 -10z
m150 -27 c0 -21 3 -47 6 -59 5 -19 0 -22 -52 -28 -44 -5 -61 -3 -74 9 -21 19
-30 19 -30 0 0 -25 -40 -18 -41 8 l-2 22 -4 -23 c-7 -36 -37 -24 -41 16 -3 28
-7 33 -25 30 -17 -2 -23 -11 -25 -36 -5 -45 -36 -41 -40 6 -5 54 -52 39 -52
-17 0 -14 -11 -16 -82 -15 -113 2 -110 1 -106 27 2 17 11 23 43 28 l40 5 -35
5 c-50 6 -39 23 17 27 52 4 72 -11 74 -57 1 -17 4 -12 8 14 l6 40 90 1 c109 2
123 -1 128 -29 4 -18 5 -17 6 6 1 20 6 27 21 27 11 0 20 -7 20 -15 0 -19 7
-19 27 1 11 10 28 14 50 12 27 -3 33 0 33 14 0 11 7 18 20 18 16 0 20 -7 20
-37z m-598 -10 c31 -28 22 -43 -27 -43 -26 0 -45 -5 -45 -11 0 -7 14 -8 41 -4
33 6 40 4 37 -6 -7 -21 -92 -24 -112 -4 -21 22 -20 61 2 74 27 16 83 13 104
-6z"/>
<path d="M955 580 c-4 -7 -3 -16 3 -22 14 -14 47 -6 47 12 0 18 -40 26 -50 10z"/>
<path d="M540 560 c-8 -5 -11 -12 -8 -16 10 -9 38 3 38 16 0 12 -10 13 -30 0z"/>
<path d="M385 590 c-3 -5 3 -10 15 -10 12 0 18 5 15 10 -3 6 -10 10 -15 10 -5
0 -12 -4 -15 -10z"/>
</g>
</svg>
